<svg xmlns="http://www.w3.org/2000/svg" width="45.95" height="45.95" style="enable-background:new 0 0 45.95 45.95" xml:space="preserve">
  <g style="fill:#4d4d4d;fill-opacity:1">
    <path d="M22.568 14.98c-1.166 0-1.935.112-2.378.225v7.48c.506.113 1.1.15 1.927.15 3.045 0 4.924-1.542 4.924-4.134.001-2.331-1.617-3.721-4.473-3.721z" style="fill:#4d4d4d;fill-opacity:1"/>
      <path d="M40.001 0H5.949A5.442 5.442 0 0 0 .506 5.443v35.065a5.442 5.442 0 0 0 5.443 5.442h34.052a5.441 5.441 0 0 0 5.442-5.442V5.443A5.44 5.44 0 0 0 40.001 0zm2.089 39.635a2.96 2.96 0 0 1-2.961 2.961H6.759a2.962 2.962 0 0 1-2.962-2.961V6.379a2.962 2.962 0 0 1 2.962-2.961h32.369a2.96 2.96 0 0 1 2.961 2.961l.001 33.256z" style="fill:#4d4d4d;fill-opacity:1"/>
      <path d="M39.128 5.507H6.759a.873.873 0 0 0-.874.873v33.256c0 .48.391.873.874.873h32.369a.874.874 0 0 0 .873-.873V6.379a.872.872 0 0 0-.873-.872zm-8.733 19.059c-1.953 1.841-4.857 2.668-8.241 2.668-.751 0-1.394-.038-1.964-.113v9.082h-5.633v-25.02c1.772-.301 4.236-.527 7.732-.527 3.534 0 6.046.677 7.739 2.031 1.615 1.277 2.703 3.383 2.703 5.863 0 2.483-.83 4.589-2.336 6.016z" style="fill:#4d4d4d;fill-opacity:1"/>
  </g>
</svg>