<?xml version="1.0" encoding="UTF-8" standalone="no"?>
<!-- Generator: Adobe Illustrator 16.0.0, SVG Export Plug-In . SVG Version: 6.00 Build 0)  -->

<svg
   xmlns:dc="http://purl.org/dc/elements/1.1/"
   xmlns:cc="http://creativecommons.org/ns#"
   xmlns:rdf="http://www.w3.org/1999/02/22-rdf-syntax-ns#"
   xmlns:svg="http://www.w3.org/2000/svg"
   xmlns="http://www.w3.org/2000/svg"
   xmlns:sodipodi="http://sodipodi.sourceforge.net/DTD/sodipodi-0.dtd"
   xmlns:inkscape="http://www.inkscape.org/namespaces/inkscape"
   version="1.1"
   id="Capa_1"
   x="0px"
   y="0px"
   width="45.95px"
   height="45.95px"
   viewBox="0 0 45.95 45.95"
   style="enable-background:new 0 0 45.95 45.95;"
   xml:space="preserve"
   sodipodi:docname="parking-sign.svg"
   inkscape:version="0.92.1 r15371"><metadata
     id="metadata47"><rdf:RDF><cc:Work
         rdf:about=""><dc:format>image/svg+xml</dc:format><dc:type
           rdf:resource="http://purl.org/dc/dcmitype/StillImage" /></cc:Work></rdf:RDF></metadata><defs
     id="defs45" /><sodipodi:namedview
     pagecolor="#ffffff"
     bordercolor="#666666"
     borderopacity="1"
     objecttolerance="10"
     gridtolerance="10"
     guidetolerance="10"
     inkscape:pageopacity="0"
     inkscape:pageshadow="2"
     inkscape:window-width="1920"
     inkscape:window-height="1027"
     id="namedview43"
     showgrid="false"
     inkscape:zoom="5.1360173"
     inkscape:cx="-1.2655721"
     inkscape:cy="22.975"
     inkscape:window-x="-8"
     inkscape:window-y="-8"
     inkscape:window-maximized="1"
     inkscape:current-layer="g10" /><g
     id="g10"><g
       id="g8"
       style="fill:#4d4d4d;fill-opacity:1"><path
         d="M22.568,14.98c-1.166,0-1.935,0.112-2.378,0.225v7.48c0.506,0.113,1.1,0.15,1.927,0.15c3.045,0,4.924-1.542,4.924-4.134    C27.042,16.37,25.424,14.98,22.568,14.98z"
         id="path2"
         style="fill:#4d4d4d;fill-opacity:1" /><path
         d="M40.001,0H5.949C2.942,0,0.506,2.437,0.506,5.443v35.065c0,3.006,2.437,5.442,5.443,5.442h34.052    c3.007,0,5.442-2.437,5.442-5.442V5.443C45.444,2.436,43.008,0,40.001,0z M42.09,39.635c0,1.637-1.326,2.961-2.961,2.961H6.759    c-1.636,0-2.962-1.326-2.962-2.961V6.379c0-1.635,1.326-2.961,2.962-2.961h32.369c1.636,0,2.961,1.326,2.961,2.961L42.09,39.635    L42.09,39.635z"
         id="path4"
         style="fill:#4d4d4d;fill-opacity:1" /><path
         d="M39.128,5.507H6.759c-0.482,0-0.874,0.39-0.874,0.873v33.256c0,0.48,0.391,0.873,0.874,0.873h32.369    c0.481,0,0.873-0.392,0.873-0.873V6.379C40.001,5.897,39.61,5.507,39.128,5.507z M30.395,24.566    c-1.953,1.841-4.857,2.668-8.241,2.668c-0.751,0-1.394-0.038-1.964-0.113v9.082h-5.633v-25.02    c1.772-0.301,4.236-0.527,7.732-0.527c3.534,0,6.046,0.677,7.739,2.031c1.615,1.277,2.703,3.383,2.703,5.863    C32.731,21.033,31.901,23.139,30.395,24.566z"
         id="path6"
         style="fill:#4d4d4d;fill-opacity:1" /></g></g><g
     id="g12" /><g
     id="g14" /><g
     id="g16" /><g
     id="g18" /><g
     id="g20" /><g
     id="g22" /><g
     id="g24" /><g
     id="g26" /><g
     id="g28" /><g
     id="g30" /><g
     id="g32" /><g
     id="g34" /><g
     id="g36" /><g
     id="g38" /><g
     id="g40" /></svg>